<svg aria-hidden="true" style="position: absolute; width: 0; height: 0; overflow: hidden;" version="1.1" xmlns="http://www.w3.org/2000/svg" xmlns:xlink="http://www.w3.org/1999/xlink">
<defs>
<symbol id="icon-collegiate" viewBox="0 0 32 32">
<path d="M13.864 26.873h4.282v4.395h-4.282v-4.395z"></path>
<path d="M23.595 15.89v15.378h7.201v-15.378h-7.201zM27.932 29.073c0 0.46-0.349 0.833-0.779 0.833s-0.778-0.373-0.778-0.833v-3.408c0-0.46 0.349-0.833 0.778-0.833s0.779 0.373 0.779 0.833v3.408zM27.932 21.498c0 0.46-0.349 0.833-0.779 0.833s-0.778-0.373-0.778-0.833v-3.412c0-0.46 0.349-0.833 0.778-0.833s0.779 0.373 0.779 0.833v3.412z"></path>
<path d="M1.214 31.268h7.201v-15.378h-7.201v15.378zM4.079 18.086c0-0.46 0.349-0.833 0.779-0.833s0.778 0.373 0.778 0.833v3.412c0 0.46-0.349 0.833-0.778 0.833s-0.779-0.373-0.779-0.833v-3.412zM4.079 25.664c0-0.46 0.349-0.833 0.779-0.833s0.778 0.373 0.778 0.833v3.408c0 0.46-0.349 0.833-0.778 0.833s-0.779-0.373-0.779-0.833v-3.408z"></path>
<path d="M16.005 0.020l-8.046 9.658h1.234c0.206 0 0.405 0.088 0.55 0.244s0.228 0.368 0.228 0.589v4.166c0.058 0.117 0.088 0.247 0.090 0.379v16.212h2.246v-5.229c0-0.46 0.348-0.833 0.778-0.833h5.839c0.206 0 0.405 0.088 0.55 0.244s0.228 0.368 0.228 0.589v5.229h2.246v-16.212c0.001-0.132 0.032-0.262 0.090-0.379v-4.166c0-0.46 0.348-0.833 0.778-0.833h1.234l-8.046-9.658zM14.129 22.631c0 0.46-0.349 0.833-0.778 0.833s-0.778-0.373-0.778-0.833v-3.408c0-0.46 0.348-0.833 0.778-0.833s0.778 0.373 0.778 0.833v3.408zM14.129 15.056c0 0.46-0.349 0.834-0.778 0.834s-0.778-0.373-0.778-0.834v-3.408c0-0.46 0.348-0.834 0.778-0.834s0.778 0.373 0.778 0.834v3.408zM19.438 22.631c0 0.46-0.348 0.833-0.778 0.833s-0.778-0.373-0.778-0.833v-3.408c0-0.46 0.349-0.833 0.778-0.833s0.778 0.373 0.778 0.833v3.408zM19.438 15.056c0 0.46-0.348 0.834-0.778 0.834s-0.778-0.373-0.778-0.834v-3.408c0-0.46 0.349-0.834 0.778-0.834s0.778 0.373 0.778 0.834v3.408z"></path>
</symbol>
<symbol id="icon-univer" viewBox="0 0 26 32">
<path d="M19.183 9.832v-4.905h1.573l-7.666-4.906-7.666 4.906h1.573v4.906h-6.585v21.437h9.19l-0-9.813h6.977v9.812h9.19l0-21.437-6.585 0.001zM5.092 12.498h1.843v1.999h-1.843v-1.999zM1.554 12.498h1.843v1.999h-1.843v-1.999zM1.554 15.697h1.843v1.999h-1.843v-1.999zM4.097 28.575h-2.138v-2.32h2.138v2.32zM4.097 24.175h-2.138v-2.319h2.138v2.319zM5.092 15.697h1.843v1.999h-1.843v-1.999zM8.077 28.574h-2.138v-2.32h2.138v2.32zM8.077 24.175h-2.138v-2.319h2.138v2.319zM10.473 17.696h-1.843v-1.999h1.843v1.999zM10.473 14.497h-1.843v-2h1.843v2zM14.011 17.696h-1.843v-1.999h1.843v1.999zM14.011 14.497h-1.843v-2h1.843v2zM13.090 8.258c-0.977 0-1.769-0.859-1.769-1.92s0.792-1.919 1.769-1.919c0.977 0 1.769 0.859 1.769 1.919s-0.793 1.92-1.769 1.92zM17.549 17.696h-1.843v-1.999h1.843v1.999zM17.549 14.497h-1.843v-1.999h1.843v1.999zM20.24 28.574h-2.137v-2.32h2.137v2.32zM20.24 24.174h-2.137v-2.319h2.137v2.319zM21.088 17.696h-1.843v-1.999h1.843v1.999zM21.088 14.497h-1.843v-1.999h1.843v1.999zM24.22 28.574h-2.138v-2.32h2.138v2.32zM24.22 24.174h-2.138v-2.319h2.138v2.319zM24.626 17.696h-1.843v-1.999h1.843v1.999zM24.626 14.497h-1.843v-1.999h1.843v1.999z"></path>
</symbol>
<symbol id="icon-pace" viewBox="0 0 42 32">
<path d="M0.34 0.894h40.129v30.278h-40.129v-30.278z"></path>
</symbol>
<symbol id="icon-arrow-right2" viewBox="0 0 32 32">
<path d="M19.414 27.414l10-10c0.781-0.781 0.781-2.047 0-2.828l-10-10c-0.781-0.781-2.047-0.781-2.828 0s-0.781 2.047 0 2.828l6.586 6.586h-19.172c-1.105 0-2 0.895-2 2s0.895 2 2 2h19.172l-6.586 6.586c-0.39 0.39-0.586 0.902-0.586 1.414s0.195 1.024 0.586 1.414c0.781 0.781 2.047 0.781 2.828 0z"></path>
</symbol>
<symbol id="icon-mail" viewBox="0 0 38 32">
<path d="M34.017 5h-30.463c-0.648 0-1.172 0.447-1.172 1v20c0 0.553 0.524 1 1.172 1h30.463c0.648 0 1.172-0.447 1.172-1v-20c0-0.553-0.524-1-1.172-1zM31.059 8.403l-11.552 7.672c-0.286 0.191-0.685 0.191-0.97 0l-11.555-7.672c-0.044-0.029-0.075-0.068-0.091-0.113s-0.015-0.093 0.003-0.137c0.018-0.044 0.051-0.083 0.096-0.11s0.098-0.042 0.153-0.042h23.755c0.055 0 0.109 0.015 0.153 0.042s0.078 0.066 0.096 0.11c0.018 0.044 0.019 0.093 0.003 0.137s-0.048 0.085-0.091 0.113z"></path>
</symbol>
</defs>
</svg>
